<svg width="5600" height="200" version="1.1">
  <defs>
  <linearGradient id="GradCoil" x1="0" x2="0" y1="0" y2="1">
    <stop offset="0%" stop-color="grey"/>
    <stop offset="50%" stop-color="white"/>
    <stop offset="100%" stop-color="grey"/>
  </linearGradient>
  <radialGradient id="GradTurn">
    <stop offset="0%" stop-color="white"/>
    <stop offset="40%" stop-color="lightcyan"/>
    <stop offset="100%" stop-color="cyan"/>
  </radialGradient>
  <linearGradient id="GradSheet" x1="0" x2="0" y1="0" y2="1">
    <stop offset="0%" stop-color="gold"/>
    <stop offset="50%" stop-color="moccasin"/>
    <stop offset="100%" stop-color="gold"/>
  </linearGradient>
  <linearGradient id="GradBridge" x1="0" x2="0" y1="0" y2="1">
    <stop offset="0%" stop-color="darkkhaki"/>
    <stop offset="50%" stop-color="tan"/>
    <stop offset="100%" stop-color="darkkhaki"/>
  </linearGradient>
  <linearGradient id="GradHelixUF_H" x1="0" x2="0" y1="0" y2="1">
    <stop offset="0%" stop-color="red"/>
    <stop offset="100%" stop-color="orange"/>
  </linearGradient>
  <linearGradient id="GradHelixLF_H" x1="0" x2="0" y1="0" y2="1">
    <stop offset="0%" stop-color="orange"/>
    <stop offset="100%" stop-color="red"/>
  </linearGradient>
  <linearGradient id="GradHelixUB_H" x1="0" x2="0" y1="0" y2="1">
    <stop offset="0%" stop-color="red"/>
    <stop offset="100%" stop-color="darkred"/>
  </linearGradient>
  <linearGradient id="GradHelixLB_H" x1="0" x2="0" y1="0" y2="1">
    <stop offset="0%" stop-color="darkred"/>
    <stop offset="100%" stop-color="red"/>
  </linearGradient>
  <linearGradient id="GradHelixFF_H" x1="0" x2="0" y1="0" y2="1">
    <stop offset="0%" stop-color="red"/>
    <stop offset="50%" stop-color="orange"/>
    <stop offset="100%" stop-color="red"/>
  </linearGradient>
  <linearGradient id="GradHelixFB_H" x1="0" x2="0" y1="0" y2="1">
    <stop offset="0%" stop-color="red"/>
    <stop offset="45%" stop-color="darkred"/>
    <stop offset="55%" stop-color="darkred"/>
    <stop offset="100%" stop-color="red"/>
  </linearGradient>
  <linearGradient id="GradHelixUF_G" x1="0" x2="0" y1="0" y2="1">
    <stop offset="0%" stop-color="plum"/>
    <stop offset="100%" stop-color="pink"/>
  </linearGradient>
  <linearGradient id="GradHelixLF_G" x1="0" x2="0" y1="0" y2="1">
    <stop offset="0%" stop-color="pink"/>
    <stop offset="100%" stop-color="plum"/>
  </linearGradient>
  <linearGradient id="GradHelixUB_G" x1="0" x2="0" y1="0" y2="1">
    <stop offset="0%" stop-color="plum"/>
    <stop offset="100%" stop-color="darkmagenta"/>
  </linearGradient>
  <linearGradient id="GradHelixLB_G" x1="0" x2="0" y1="0" y2="1">
    <stop offset="0%" stop-color="darkmagenta"/>
    <stop offset="100%" stop-color="plum"/>
  </linearGradient>
  <linearGradient id="GradHelixFF_G" x1="0" x2="0" y1="0" y2="1">
    <stop offset="0%" stop-color="plum"/>
    <stop offset="50%" stop-color="pink"/>
    <stop offset="100%" stop-color="plum"/>
  </linearGradient>
  <linearGradient id="GradHelixFB_G" x1="0" x2="0" y1="0" y2="1">
    <stop offset="0%" stop-color="plum"/>
    <stop offset="45%" stop-color="darkmagenta"/>
    <stop offset="55%" stop-color="darkmagenta"/>
    <stop offset="100%" stop-color="plum"/>
  </linearGradient>
  <linearGradient id="GradHelixUF_I" x1="0" x2="0" y1="0" y2="1">
    <stop offset="0%" stop-color="purple"/>
    <stop offset="100%" stop-color="violet"/>
  </linearGradient>
  <linearGradient id="GradHelixLF_I" x1="0" x2="0" y1="0" y2="1">
    <stop offset="0%" stop-color="violet"/>
    <stop offset="100%" stop-color="purple"/>
  </linearGradient>
  <linearGradient id="GradHelixUB_I" x1="0" x2="0" y1="0" y2="1">
    <stop offset="0%" stop-color="purple"/>
    <stop offset="100%" stop-color="indigo"/>
  </linearGradient>
  <linearGradient id="GradHelixLB_I" x1="0" x2="0" y1="0" y2="1">
    <stop offset="0%" stop-color="indigo"/>
    <stop offset="100%" stop-color="purple"/>
  </linearGradient>
  <linearGradient id="GradHelixFF_I" x1="0" x2="0" y1="0" y2="1">
    <stop offset="0%" stop-color="purple"/>
    <stop offset="50%" stop-color="violet"/>
    <stop offset="100%" stop-color="purple"/>
  </linearGradient>
  <linearGradient id="GradHelixFB_I" x1="0" x2="0" y1="0" y2="1">
    <stop offset="0%" stop-color="purple"/>
    <stop offset="45%" stop-color="indigo"/>
    <stop offset="55%" stop-color="indigo"/>
    <stop offset="100%" stop-color="purple"/>
  </linearGradient>
  </defs>
  <path d="M 0,85 h 100 v 30 h -100 z"
    style="fill:url(#GradCoil)" />
  <path d="M 0,85 h 100"
    style="stroke:#000000;stroke-width:5px;stroke-linecap:butt;stroke-linejoin:miter;stroke-opacity:1" />
  <path d="M 0,115 h 100"
    style="stroke:#000000;stroke-width:5px;stroke-linecap:butt;stroke-linejoin:miter;stroke-opacity:1" />
  <path d="M 100,85 h 30 v 30 h -30 z"
    style="fill:url(#GradCoil)" />
  <path d="M 100,85 h 30"
    style="stroke:#000000;stroke-width:5px;stroke-linecap:butt;stroke-linejoin:miter;stroke-opacity:1" />
  <path d="M 100,115 h 30"
    style="stroke:#000000;stroke-width:5px;stroke-linecap:butt;stroke-linejoin:miter;stroke-opacity:1" />
  <path d="M 770,85 h 30 v 30 h -30 z"
    style="fill:url(#GradCoil)" />
  <path d="M 770,85 h 30"
    style="stroke:#000000;stroke-width:5px;stroke-linecap:butt;stroke-linejoin:miter;stroke-opacity:1" />
  <path d="M 770,115 h 30"
    style="stroke:#000000;stroke-width:5px;stroke-linecap:butt;stroke-linejoin:miter;stroke-opacity:1" />
  <path d="M 130,85 l 70,-30 h 500 v -30 l 70,60 
    v 30 l -70,60 v -30 h -500 l -70,-30 z"
    style="fill:url(#GradSheet);stroke:#000000;stroke-width:5px;stroke-linecap:butt;stroke-linejoin:miter;stroke-opacity:1" />
  <path d="M 800,85 h 100 v 30 h -100 z"
    style="fill:url(#GradCoil)" />
  <path d="M 800,85 h 100"
    style="stroke:#000000;stroke-width:5px;stroke-linecap:butt;stroke-linejoin:miter;stroke-opacity:1" />
  <path d="M 800,115 h 100"
    style="stroke:#000000;stroke-width:5px;stroke-linecap:butt;stroke-linejoin:miter;stroke-opacity:1" />
  <path d="M 900,85 h 200 v 30 h -200 z"
    style="fill:url(#GradCoil)" />
  <path d="M 900,85 h 200"
    style="stroke:#000000;stroke-width:5px;stroke-linecap:butt;stroke-linejoin:miter;stroke-opacity:1" />
  <path d="M 900,115 h 200"
    style="stroke:#000000;stroke-width:5px;stroke-linecap:butt;stroke-linejoin:miter;stroke-opacity:1" />
  <path d="M 1100,85 h 100 v 30 h -100 z"
    style="fill:url(#GradCoil)" />
  <path d="M 1100,85 h 100"
    style="stroke:#000000;stroke-width:5px;stroke-linecap:butt;stroke-linejoin:miter;stroke-opacity:1" />
  <path d="M 1100,115 h 100"
    style="stroke:#000000;stroke-width:5px;stroke-linecap:butt;stroke-linejoin:miter;stroke-opacity:1" />
  <path d="M 1200,85 h 30 v 30 h -30 z"
    style="fill:url(#GradCoil)" />
  <path d="M 1200,85 h 30"
    style="stroke:#000000;stroke-width:5px;stroke-linecap:butt;stroke-linejoin:miter;stroke-opacity:1" />
  <path d="M 1200,115 h 30"
    style="stroke:#000000;stroke-width:5px;stroke-linecap:butt;stroke-linejoin:miter;stroke-opacity:1" />
  <path d="M 1870,85 h 30 v 30 h -30 z"
    style="fill:url(#GradCoil)" />
  <path d="M 1870,85 h 30"
    style="stroke:#000000;stroke-width:5px;stroke-linecap:butt;stroke-linejoin:miter;stroke-opacity:1" />
  <path d="M 1870,115 h 30"
    style="stroke:#000000;stroke-width:5px;stroke-linecap:butt;stroke-linejoin:miter;stroke-opacity:1" />
  <path d="M 1230,85 l 70,-30 h 500 v -30 l 70,60 
    v 30 l -70,60 v -30 h -500 l -70,-30 z"
    style="fill:url(#GradSheet);stroke:#000000;stroke-width:5px;stroke-linecap:butt;stroke-linejoin:miter;stroke-opacity:1" />
  <path d="M 1900,85 h 100 v 30 h -100 z"
    style="fill:url(#GradCoil)" />
  <path d="M 1900,85 h 100"
    style="stroke:#000000;stroke-width:5px;stroke-linecap:butt;stroke-linejoin:miter;stroke-opacity:1" />
  <path d="M 1900,115 h 100"
    style="stroke:#000000;stroke-width:5px;stroke-linecap:butt;stroke-linejoin:miter;stroke-opacity:1" />
  <path d="M 2000,85 h 200 v 30 h -200 z"
    style="fill:url(#GradCoil)" />
  <path d="M 2000,85 h 200"
    style="stroke:#000000;stroke-width:5px;stroke-linecap:butt;stroke-linejoin:miter;stroke-opacity:1" />
  <path d="M 2000,115 h 200"
    style="stroke:#000000;stroke-width:5px;stroke-linecap:butt;stroke-linejoin:miter;stroke-opacity:1" />
  <path d="M 2200,85 h 85 l 30,30 h -115"
    style="fill:url(#GradCoil);stroke:#000000;stroke-width:5px;stroke-linecap:butt;stroke-linejoin:miter;stroke-opacity:1" />
  <path d="M 3600,85 h -85 l -30,30 h 115"
    style="fill:url(#GradCoil);stroke:#000000;stroke-width:5px;stroke-linecap:butt;stroke-linejoin:miter;stroke-opacity:1" />
<path d="M 2292.86,145 c 33.7424,0 63.2998,-22.5 92.8571,-45 29.5573,-22.5, 59.1147,-45 92.8571,-45 h 100 c -33.7424,0 -63.2998,22.5 -92.8571,45 -29.5573,22.5, -59.1147,45 -92.8571,45 z"
style="fill:url(#GradHelixFB_H);stroke:#000000;stroke-width:5px;stroke-linecap:butt;stroke-linejoin:miter;stroke-opacity:1" />
<path d="M 2664.29,145 c 33.7424,0 63.2998,-22.5 92.8571,-45 29.5573,-22.5, 59.1147,-45 92.8571,-45 h 100 c -33.7424,0 -63.2998,22.5 -92.8571,45 -29.5573,22.5, -59.1147,45 -92.8571,45 z"
style="fill:url(#GradHelixFB_H);stroke:#000000;stroke-width:5px;stroke-linecap:butt;stroke-linejoin:miter;stroke-opacity:1" />
<path d="M 3035.71,145 c 33.7424,0 63.2998,-22.5 92.8571,-45 29.5573,-22.5, 59.1147,-45 92.8571,-45 h 100 c -33.7424,0 -63.2998,22.5 -92.8571,45 -29.5573,22.5, -59.1147,45 -92.8571,45 z"
style="fill:url(#GradHelixFB_H);stroke:#000000;stroke-width:5px;stroke-linecap:butt;stroke-linejoin:miter;stroke-opacity:1" />
<path d="M 3507.14,100 c -29.5573,22.5 -59.1147,45 -92.8571,45 h 100 c 33.7424,0 63.2998,-22.5 92.8571,-45 z"
style="fill:url(#GradHelixLB_H);stroke:#000000;stroke-width:5px;stroke-linecap:butt;stroke-linejoin:miter;stroke-opacity:1" />
<path d="M 2478.57,25 c 33.7424,0 63.2998,37.5 92.8571,75 29.5573,37.5, 59.1147,75 92.8571,75 h 100 c -33.7424,0 -63.2998,-37.5 -92.8571,-75 -29.5573,-37.5, -59.1147,-75 -92.8571,-75 z"
style="fill:url(#GradHelixFF_H);stroke:#000000;stroke-width:5px;stroke-linecap:butt;stroke-linejoin:miter;stroke-opacity:1" />
<path d="M 2850,25 c 33.7424,0 63.2998,37.5 92.8571,75 29.5573,37.5, 59.1147,75 92.8571,75 h 100 c -33.7424,0 -63.2998,-37.5 -92.8571,-75 -29.5573,-37.5, -59.1147,-75 -92.8571,-75 z"
style="fill:url(#GradHelixFF_H);stroke:#000000;stroke-width:5px;stroke-linecap:butt;stroke-linejoin:miter;stroke-opacity:1" />
<path d="M 3221.43,25 c 33.7424,0 63.2998,37.5 92.8571,75 29.5573,37.5, 59.1147,75 92.8571,75 h 100 c -33.7424,0 -63.2998,-37.5 -92.8571,-75 -29.5573,-37.5, -59.1147,-75 -92.8571,-75 z"
style="fill:url(#GradHelixFF_H);stroke:#000000;stroke-width:5px;stroke-linecap:butt;stroke-linejoin:miter;stroke-opacity:1" />
<path d="M 2200,100 c 29.5573,37.5 59.1147,75 92.8571,75 h 100 c -33.7424,0 -63.2998,-37.5 -92.8571,-75 z"
style="fill:url(#GradHelixLF_H);stroke:#000000;stroke-width:5px;stroke-linecap:butt;stroke-linejoin:miter;stroke-opacity:1" />
<path d="M 2300,100 c 29.5573,37.5 59.1147,75 92.8571,75 33.7424,0 63.2998,-37.5 92.8571,-75 c -29.5573,22.5 -59.1147,45 -92.8571,45 -33.7424,0 -63.2998,-22.5, -92.8571,-45 z"
style="fill:url(#GradHelixLF_H);stroke:#000000;stroke-width:5px;stroke-linecap:butt;stroke-linejoin:miter;stroke-opacity:1" />
<path d="M 2385.71,100 c 29.5573,-37.5 59.1147,-75 92.8571,-75 33.7424,0 63.2998,37.5 92.8571,75 c -29.5573,-22.5 -59.1147,-45 -92.8571,-45 -33.7424,0 -63.2998,22.5, -92.8571,45 z"
style="fill:url(#GradHelixUF_H);stroke:#000000;stroke-width:5px;stroke-linecap:butt;stroke-linejoin:miter;stroke-opacity:1" />
<path d="M 2671.43,100 c 29.5573,37.5 59.1147,75 92.8571,75 33.7424,0 63.2998,-37.5 92.8571,-75 c -29.5573,22.5 -59.1147,45 -92.8571,45 -33.7424,0 -63.2998,-22.5, -92.8571,-45 z"
style="fill:url(#GradHelixLF_H);stroke:#000000;stroke-width:5px;stroke-linecap:butt;stroke-linejoin:miter;stroke-opacity:1" />
<path d="M 2757.14,100 c 29.5573,-37.5 59.1147,-75 92.8571,-75 33.7424,0 63.2998,37.5 92.8571,75 c -29.5573,-22.5 -59.1147,-45 -92.8571,-45 -33.7424,0 -63.2998,22.5, -92.8571,45 z"
style="fill:url(#GradHelixUF_H);stroke:#000000;stroke-width:5px;stroke-linecap:butt;stroke-linejoin:miter;stroke-opacity:1" />
<path d="M 3042.86,100 c 29.5573,37.5 59.1147,75 92.8571,75 33.7424,0 63.2998,-37.5 92.8571,-75 c -29.5573,22.5 -59.1147,45 -92.8571,45 -33.7424,0 -63.2998,-22.5, -92.8571,-45 z"
style="fill:url(#GradHelixLF_H);stroke:#000000;stroke-width:5px;stroke-linecap:butt;stroke-linejoin:miter;stroke-opacity:1" />
<path d="M 3128.57,100 c 29.5573,-37.5 59.1147,-75 92.8571,-75 33.7424,0 63.2998,37.5 92.8571,75 c -29.5573,-22.5 -59.1147,-45 -92.8571,-45 -33.7424,0 -63.2998,22.5, -92.8571,45 z"
style="fill:url(#GradHelixUF_H);stroke:#000000;stroke-width:5px;stroke-linecap:butt;stroke-linejoin:miter;stroke-opacity:1" />
<path d="M 3414.29,100 c 29.5573,37.5 59.1147,75 92.8571,75 33.7424,0 63.2998,-37.5 92.8571,-75 c -29.5573,22.5 -59.1147,45 -92.8571,45 -33.7424,0 -63.2998,-22.5, -92.8571,-45 z"
style="fill:url(#GradHelixLF_H);stroke:#000000;stroke-width:5px;stroke-linecap:butt;stroke-linejoin:miter;stroke-opacity:1" />
  <path d="M 3600,85 h 20 v 30 h -20"
    style="fill:url(#GradCoil);stroke:#000000;stroke-width:5px;stroke-linecap:butt;stroke-linejoin:miter;stroke-opacity:1" />
  <path d="M 3620,85 a 120,37.5 0 0 1 160,0 v 30 a 120,37.5 0 0 1 -160,0 z"
style="fill:url(#GradTurn);stroke:#000000;stroke-width:5px;stroke-linecap:butt;stroke-linejoin:miter;stroke-opacity:1" />
  <path d="M 3800,85 h -20 v 30 h 20"
    style="fill:url(#GradCoil);stroke:#000000;stroke-width:5px;stroke-linecap:butt;stroke-linejoin:miter;stroke-opacity:1" />
  <path d="M 3800,85 h 300 v 30 h -300 z"
    style="fill:url(#GradCoil)" />
  <path d="M 3800,85 h 300"
    style="stroke:#000000;stroke-width:5px;stroke-linecap:butt;stroke-linejoin:miter;stroke-opacity:1" />
  <path d="M 3800,115 h 300"
    style="stroke:#000000;stroke-width:5px;stroke-linecap:butt;stroke-linejoin:miter;stroke-opacity:1" />
  <path d="M 4100,85 h 30 v 30 h -30 z"
    style="fill:url(#GradCoil)" />
  <path d="M 4100,85 h 30"
    style="stroke:#000000;stroke-width:5px;stroke-linecap:butt;stroke-linejoin:miter;stroke-opacity:1" />
  <path d="M 4100,115 h 30"
    style="stroke:#000000;stroke-width:5px;stroke-linecap:butt;stroke-linejoin:miter;stroke-opacity:1" />
  <path d="M 4570,85 h 30 v 30 h -30 z"
    style="fill:url(#GradCoil)" />
  <path d="M 4570,85 h 30"
    style="stroke:#000000;stroke-width:5px;stroke-linecap:butt;stroke-linejoin:miter;stroke-opacity:1" />
  <path d="M 4570,115 h 30"
    style="stroke:#000000;stroke-width:5px;stroke-linecap:butt;stroke-linejoin:miter;stroke-opacity:1" />
  <path d="M 4130,85 l 70,-30 h 300 v -30 l 70,60 
    v 30 l -70,60 v -30 h -300 l -70,-30 z"
    style="fill:url(#GradSheet);stroke:#000000;stroke-width:5px;stroke-linecap:butt;stroke-linejoin:miter;stroke-opacity:1" />
  <path d="M 4600,85 h 20 v 30 h -20"
    style="fill:url(#GradCoil);stroke:#000000;stroke-width:5px;stroke-linecap:butt;stroke-linejoin:miter;stroke-opacity:1" />
  <path d="M 4620,85 a 270,37.5 0 0 1 360,0 v 30 a 270,37.5 0 0 1 -360,0 z"
style="fill:url(#GradTurn);stroke:#000000;stroke-width:5px;stroke-linecap:butt;stroke-linejoin:miter;stroke-opacity:1" />
  <path d="M 5000,85 h -20 v 30 h 20"
    style="fill:url(#GradCoil);stroke:#000000;stroke-width:5px;stroke-linecap:butt;stroke-linejoin:miter;stroke-opacity:1" />
  <path d="M 5000,85 h 30 v 30 h -30 z"
    style="fill:url(#GradCoil)" />
  <path d="M 5000,85 h 30"
    style="stroke:#000000;stroke-width:5px;stroke-linecap:butt;stroke-linejoin:miter;stroke-opacity:1" />
  <path d="M 5000,115 h 30"
    style="stroke:#000000;stroke-width:5px;stroke-linecap:butt;stroke-linejoin:miter;stroke-opacity:1" />
  <path d="M 5470,85 h 30 v 30 h -30 z"
    style="fill:url(#GradCoil)" />
  <path d="M 5470,85 h 30"
    style="stroke:#000000;stroke-width:5px;stroke-linecap:butt;stroke-linejoin:miter;stroke-opacity:1" />
  <path d="M 5470,115 h 30"
    style="stroke:#000000;stroke-width:5px;stroke-linecap:butt;stroke-linejoin:miter;stroke-opacity:1" />
  <path d="M 5030,85 l 70,-30 h 300 v -30 l 70,60 
    v 30 l -70,60 v -30 h -300 l -70,-30 z"
    style="fill:url(#GradSheet);stroke:#000000;stroke-width:5px;stroke-linecap:butt;stroke-linejoin:miter;stroke-opacity:1" />
  <path d="M 5500,85 h 100 v 30 h -100 z"
    style="fill:url(#GradCoil)" />
  <path d="M 5500,85 h 100"
    style="stroke:#000000;stroke-width:5px;stroke-linecap:butt;stroke-linejoin:miter;stroke-opacity:1" />
  <path d="M 5500,115 h 100"
    style="stroke:#000000;stroke-width:5px;stroke-linecap:butt;stroke-linejoin:miter;stroke-opacity:1" />
</svg>
